<svg viewBox="0 0 213 213" xmlns="http://www.w3.org/2000/svg" height="1em" width="1em">
  <path d="M151.198581,0 L61.9072413,0 C23.1219817,0 0,23.1105 0,61.8765 L0,151.017 C0,189.8895 23.1219817,213 61.9072413,213 L151.092028,213 C189.877287,213 212.999636,189.8895 212.999636,151.1235 L212.999636,61.8765 C213.105822,23.1105 189.98384,0 151.198581,0 Z M149.174075,114.4875 L114.544379,114.4875 L114.544379,149.1 C114.544379,153.4665 110.92158,157.0875 106.552911,157.0875 C102.184242,157.0875 98.5614427,153.4665 98.5614427,149.1 L98.5614427,114.4875 L63.9317466,114.4875 C59.5630773,114.4875 55.9402783,110.8665 55.9402783,106.5 C55.9402783,102.1335 59.5630773,98.5125 63.9317466,98.5125 L98.5614427,98.5125 L98.5614427,63.9 C98.5614427,59.5335 102.184242,55.9125 106.552911,55.9125 C110.92158,55.9125 114.544379,59.5335 114.544379,63.9 L114.544379,98.5125 L149.174075,98.5125 C153.542745,98.5125 157.165544,102.1335 157.165544,106.5 C157.165544,110.8665 153.542745,114.4875 149.174075,114.4875 Z" fill="currentColor"/>
</svg>
