<svg viewBox="0 0 213 213" xmlns="http://www.w3.org/2000/svg" height="1em" width="1em">
  <path d="M151.198581,0 L61.9072413,0 C23.1219817,0 0,23.1105 0,61.8765 L0,151.017 C0,189.8895 23.1219817,213 61.9072413,213 L151.092028,213 C189.877287,213 212.999636,189.8895 212.999636,151.1235 L212.999636,61.8765 C213.105822,23.1105 189.98384,0 151.198581,0 Z M95.3648554,165.1815 C92.274821,168.27 86.4144109,171.252 82.1522944,171.891 L55.9402783,175.6185 C54.9813021,175.725 54.0223259,175.8315 53.0633497,175.8315 C48.6946803,175.8315 44.6456697,174.3405 41.7687411,171.465 C38.2524951,167.9505 36.7607543,162.8385 37.6131776,157.194 L41.3425295,130.995 C41.9818469,126.6285 44.8587755,120.8775 48.0553629,117.789 L95.5779612,70.29 C97.2713803,75.0605216 99.4119498,79.6604608 101.971136,84.0285 C103.036665,85.839 104.208747,87.543 105.167723,88.821 C106.339805,90.6315 107.724993,92.3355 108.577416,93.294 C109.110181,94.0395 109.536393,94.572 109.749498,94.785 C112.413321,97.98 115.503356,100.962 118.167178,103.1985 C118.913049,103.944 119.33926,104.37 119.552366,104.4765 C121.15066,105.7545 122.748954,107.0325 124.134141,107.991 C125.838988,109.269 127.543835,110.4405 129.355234,111.399 C131.486292,112.677 133.830456,113.8485 136.17462,115.02 C138.625337,116.085 140.862948,117.0435 143.10056,117.789 L95.3648554,165.1815 L95.3648554,165.1815 Z M163.771824,96.8085 L153.968956,106.713 C153.346027,107.331124 152.502561,107.676007 151.624792,107.671544 C151.305134,107.671544 150.878922,107.671544 150.665816,107.565 C128.910234,101.261552 111.900515,84.2602791 105.593935,62.5155 C105.274276,61.344 105.593935,60.066 106.446358,59.3205 L116.355779,49.416 C132.551821,33.228 148.001993,33.5475 163.878377,49.416 C171.976398,57.51 175.918856,65.2845 175.918856,73.3785 C175.812303,81.0465 171.869846,88.7145 163.771824,96.8085 L163.771824,96.8085 Z" fill="currentColor"/>
</svg>
