<svg xmlns="http://www.w3.org/2000/svg" width="1em" height="1em" viewBox="0 0 177 177">
  <path fill="currentColor" d="M125.643891,0 L51.4440456,0 C19.2140411,0 0,19.2045 0,51.4185 L0,125.493 C0,157.7955 19.2140411,177 51.4440456,177 L125.555347,177 C157.785352,177 176.999697,157.7955 176.999697,125.5815 L176.999697,51.4185 C177.087937,19.2045 157.873896,0 125.643891,0 Z M137.508783,48.9405 L69.1528393,117.2625 L95.8931177,117.2625 C99.5234204,117.2625 102.533915,120.2715 102.533915,123.9 C102.533915,127.5285 99.5234204,130.5375 95.8931177,130.5375 L53.126381,130.5375 C49.4960783,130.5375 46.4855834,127.5285 46.4855834,123.9 L46.4855834,81.1545 C46.4855834,77.526 49.4960783,74.517 53.126381,74.517 C56.7566837,74.517 59.7671786,77.526 59.7671786,81.1545 L59.7671786,107.8815 L128.123122,39.5595 C129.451282,38.232 131.133617,37.6125 132.815952,37.6125 C134.498288,37.6125 136.180623,38.232 137.508783,39.5595 C140.076558,42.126 140.076558,46.374 137.508783,48.9405 Z"/>
</svg>