<svg viewBox="0 0 213 213" xmlns="http://www.w3.org/2000/svg" height="1em" width="1em">
  <path d="M151.198581,0 L61.9072413,0 C23.1219817,0 0,23.1105 0,61.8765 L0,151.017 C0,189.8895 23.1219817,213 61.9072413,213 L151.092028,213 C189.877287,213 212.999636,189.8895 212.999636,151.1235 L212.999636,61.8765 C213.105822,23.1105 189.98384,0 151.198581,0 Z M65.849699,157.300581 L65.1038286,157.300581 C54.7681963,156.342 45.0718814,151.5495 37.8262834,143.8815 C20.7778177,125.9895 20.7778177,96.915 37.8262834,79.023 L61.1613709,54.528 C69.3078579,45.84294 80.6835476,40.9094985 92.5944797,40.896 C104.528406,40.896 115.716461,45.6885 124.027588,54.528 C141.076054,72.42 141.076054,101.4945 124.027588,119.3865 L112.413321,131.634 C109.323287,134.829 104.3153,134.9355 101.118713,131.9535 C97.9412106,128.91113 97.7987955,123.881626 100.799054,120.6645 L112.413321,108.417 C123.70793,96.5955 123.70793,77.319 112.413321,65.604 C101.864583,54.528 83.3243764,54.528 72.6690853,65.604 L49.3339978,90.099 C38.0393892,101.9205 38.0393892,121.197 49.3339978,132.912 C53.915773,137.811 60.0958418,140.793 66.5955694,141.432 C70.9642388,141.858 74.1608261,145.7985 73.7346144,150.165 C73.3487696,154.224059 69.9290223,157.318779 65.849699,157.300581 L65.849699,157.300581 Z M175.279539,134.0835 L151.944451,158.5785 C143.797964,167.26356 132.422274,172.197001 120.511342,172.2105 C108.577416,172.2105 97.3893607,167.418 89.0782336,158.5785 C72.0297679,140.6865 72.0297679,111.612 89.0782336,93.72 L100.692501,81.4725 C103.782535,78.2775 108.790522,78.171 111.98711,81.153 C115.183697,84.2415 115.29025,89.247 112.306768,92.442 L100.692501,104.6895 C89.3978924,116.511 89.3978924,135.7875 100.692501,147.5025 C111.241239,158.5785 129.781446,158.685 140.436737,147.5025 L163.771824,123.0075 C175.066433,111.186 175.066433,91.9095 163.771824,80.1945 C159.190049,75.2955 153.00998,72.3135 146.510253,71.6745 C142.129823,71.2264622 138.937356,67.321204 139.371208,62.9415 C139.797419,58.575 143.633324,55.2735 148.108546,55.806 C158.444179,56.871 168.140494,61.557 175.386092,69.225 C192.328004,87.0105 192.328004,116.1915 175.279539,134.0835 L175.279539,134.0835 Z" fill="currentColor"/>
</svg>
