<svg viewBox="0 0 213 213" xmlns="http://www.w3.org/2000/svg" height="1em" width="1em">
  <path d="M151.1235,0 C166.992,0 180.198,3.834 190.3155,11.1825 C194.7885,14.271 198.729,18.2115 201.8175,22.6845 C209.166,32.802 213,46.008 213,61.8765 L213,151.1235 C213,189.8895 189.8895,213 151.1235,213 L61.8765,213 C59.7465,213 57.6165,212.8935 55.593,212.787 C42.4935,211.935 31.4175,208.2075 22.6845,201.8175 C18.2115,198.729 14.271,194.7885 11.1825,190.3155 C3.834,180.198 1.13686838e-13,166.992 1.13686838e-13,151.1235 L1.13686838e-13,61.8765 C1.13686838e-13,25.2405 20.661,2.556 55.593,0.3195 C57.6165,0.1065 59.7465,0 61.8765,0 Z M154.823204,74 L62.1767958,74 C59.6847247,74 57.1926536,75.0353098 55.5068408,76.8840773 C53.821028,78.7328448 52.8681773,81.2471686 53.0147697,83.835443 L57.5591346,159.708861 C57.5833224,160.046076 57.607708,160.38582 57.6329486,160.727638 L57.6847643,161.413905 C57.6932106,161.522959 57.7017866,161.632191 57.710513,161.741585 L57.7648449,162.399794 C58.6778073,173.068733 61.3995995,185 84.9719169,185 L132.028083,185 C155.56203,185 158.313276,173.170136 159.230682,162.466926 L159.288108,161.770621 C159.29731,161.654881 159.306345,161.539307 159.315236,161.423916 L159.367051,160.733901 C159.375465,160.619308 159.383783,160.504933 159.392031,160.39079 L159.440865,159.708861 L163.98523,83.9093937 C164.131823,81.2471686 163.178972,78.7328448 161.493159,76.8840773 C159.73405,75.0353098 157.315275,74 154.823204,74 Z M118.565217,139 C121.536232,139 124,141.493333 124,144.5 C124,147.506667 121.536232,150 118.565217,150 L94.4347826,150 C91.4637681,150 89,147.506667 89,144.5 C89,141.493333 91.4637681,139 94.4347826,139 Z M126.692308,110 C129.593846,110 132,112.493333 132,115.5 C132,118.506667 129.593846,121 126.692308,121 L91.3076923,121 C88.4061538,121 86,118.506667 86,115.5 C86,112.493333 88.4061538,110 91.3076923,110 Z M116.560421,28 L97.2283683,28 C80.0361231,28 78.412821,37.6350365 77.2322376,44.7153285 L75.682722,54.0583942 C68.8205812,54.4963504 61.9584404,54.9343066 55.0962996,55.5912409 L40.0438618,57.0510949 C36.9448305,57.3430657 34.7312367,60.0437956 35.0263825,63.0364964 C35.3215283,66.0291971 37.9778409,68.2189781 41.0768722,67.9270073 L56.1293101,66.4671533 C94.7934151,62.6715328 133.752666,64.1313869 172.85949,68 L173.449782,68 C176.253667,68 178.68862,65.8832117 178.983766,63.0364964 C179.214829,60.003581 176.952776,57.344263 173.8925,57.0510949 C162.01288,55.8832117 150.13326,55.0072993 138.179854,54.350365 L138.179854,54.2773723 L136.556551,44.7883212 C135.449755,38.0729927 133.826452,28 116.560421,28 Z" fill="currentColor" />
</svg>
