<svg viewBox="0 0 213 213" xmlns="http://www.w3.org/2000/svg" height="1em" width="1em">
  <path d="M151.1235,0 C166.992,0 180.198,3.834 190.3155,11.1825 C194.7885,14.271 198.729,18.2115 201.8175,22.6845 C209.166,32.802 213,46.008 213,61.8765 L213,151.1235 C213,189.8895 189.8895,213 151.1235,213 L61.8765,213 C59.7465,213 57.6165,212.8935 55.593,212.787 C42.4935,211.935 31.4175,208.2075 22.6845,201.8175 C18.2115,198.729 14.271,194.7885 11.1825,190.3155 C3.834,180.198 0,166.992 0,151.1235 L0,61.8765 C0,25.2405 20.661,2.556 55.593,0.3195 C57.6165,0.1065 59.7465,0 61.8765,0 L151.1235,0 Z M162,80 L48,80 L48,171.928571 C48,175.834014 51.1899712,179 55.125,179 L154.875,179 C158.810029,179 162,175.834014 162,171.928571 L162,80 Z M149,93 L149,164 L63,164 L63,93 L149,93 Z M100,108 L85,108 L85,151 L100,151 L100,108 Z M128,108 L113,108 L113,151 L128,151 L128,108 Z M134.4,35 L77.6,35 C73.6787783,35 70.5,38.2235498 70.5,42.2 L70.5,56.6 L35,56.6 L35,71 L177,71 L177,56.6 L141.5,56.6 L141.5,42.2 C141.5,38.2235498 138.321222,35 134.4,35 Z M128,50 L128,57 L85,57 L85,50 L128,50 Z" fill="currentColor" />
</svg>
